0
SECTION
2
HEADER
9
$INSUNITS
70
1
9
$ACADVER
1
AC1014
9
$HANDSEED
5
FFFF
0
ENDSEC
0
SECTION
2
TABLES
0
TABLE
2
VPORT
5
8
100
AcDbSymbolTable
0
ENDTAB
0
TABLE
2
LTYPE
5
5
100
AcDbSymbolTable
0
LTYPE
5
14
100
AcDbSymbolTableRecord
100
AcDbLinetypeTableRecord
2
BYBLOCK
70
0
0
LTYPE
5
15
100
AcDbSymbolTableRecord
100
AcDbLinetypeTableRecord
2
BYLAYER
70
0
0
ENDTAB
0
TABLE
2
LAYER
5
2
100
AcDbSymbolTable
70
2
0
LAYER
5
50
100
AcDbSymbolTableRecord
100
AcDbLayerTableRecord
2
0
70
0
6
CONTINUOUS
0
ENDTAB
0
TABLE
2
STYLE
5
3
100
AcDbSymbolTable
70
1
0
STYLE
5
11
100
AcDbSymbolTableRecord
100
AcDbTextStyleTableRecord
2
STANDARD
70
0
0
ENDTAB
0
TABLE
2
VIEW
5
6
100
AcDbSymbolTable
70
0
0
ENDTAB
0
TABLE
2
UCS
5
7
100
AcDbSymbolTable
70
0
0
ENDTAB
0
TABLE
2
APPID
5
9
100
AcDbSymbolTable
70
2
0
APPID
5
12
100
AcDbSymbolTableRecord
100
AcDbRegAppTableRecord
2
ACAD
70
0
0
ENDTAB
0
TABLE
2
DIMSTYLE
5
A
100
AcDbSymbolTable
70
1
0
ENDTAB
0
TABLE
2
BLOCK_RECORD
5
1
100
AcDbSymbolTable
70
1
0
BLOCK_RECORD
5
1F
100
AcDbSymbolTableRecord
100
AcDbBlockTableRecord
2
*MODEL_SPACE
0
BLOCK_RECORD
5
1B
100
AcDbSymbolTableRecord
100
AcDbBlockTableRecord
2
*PAPER_SPACE
0
ENDTAB
0
ENDSEC
0
SECTION
2
BLOCKS
0
BLOCK
5
20
100
AcDbEntity
100
AcDbBlockBegin
2
*MODEL_SPACE
0
ENDBLK
5
21
100
AcDbEntity
100
AcDbBlockEnd
0
BLOCK
5
1C
100
AcDbEntity
100
AcDbBlockBegin
2
*PAPER_SPACE
0
ENDBLK
5
1D
100
AcDbEntity
100
AcDbBlockEnd
0
ENDSEC
0
SECTION
2
ENTITIES
0
LWPOLYLINE
5
100
100
AcDbEntity
8
0
100
AcDbPolyline
90
4
70
1
43
0.0
10
38.685520961999842
20
38.490776452823503
10
38.385520961999845
20
39.010391695094171
10
38.905136204270505
20
39.310391695094175
10
39.205136204270502
20
38.790776452823508
0
CIRCLE
5
101
100
AcDbEntity
8
0
100
AcDbCircle
10
37.712796828404635
20
38.275584073958846
30
0
40
1.9999999999999967
210
0
220
-0
230
1
0
LWPOLYLINE
5
102
100
AcDbEntity
8
0
100
AcDbPolyline
90
4
70
1
43
0.0
10
37.412796828404637
20
37.325584073958858
10
38.012796828404639
20
37.325584073958858
10
38.012796828404632
20
36.725584073958856
10
37.41279682840463
20
36.725584073958863
0
LWPOLYLINE
5
103
100
AcDbEntity
8
0
100
AcDbPolyline
90
4
70
1
43
0.0
10
37.040072694809432
20
39.010391695094171
10
36.740072694809434
20
38.490776452823511
10
36.220457452538774
20
38.790776452823515
10
36.520457452538764
20
39.310391695094175
0
LWPOLYLINE
5
104
100
AcDbEntity
8
0
100
AcDbPolyline
90
12
70
1
43
0.0
10
35.166584307682889
20
26.29812906648618
10
35.578516206970725
20
26.535958059427802
42
-0.48357458862530522
10
37.459756708468539
20
29.794362189278374
10
37.459756708468532
20
30.270020175161626
10
38.159756708468528
20
30.270020175161626
10
38.159756708468535
20
29.794362189278381
42
-0.48357458862530533
10
40.040997209966349
20
26.535958059427802
10
40.452929109254185
20
26.298129066486187
10
40.102929109254184
20
25.691911283837076
10
39.690997209966355
20
25.929740276778698
42
-0.48357458862530511
10
35.92851620697072
20
25.929740276778695
10
35.516584307682884
20
25.691911283837076
0
CIRCLE
5
105
100
AcDbEntity
8
0
100
AcDbCircle
10
37.809756708468534
20
27.420020175161625
30
0
40
5.3999999999999932
210
0
220
0
230
1
0
LWPOLYLINE
5
106
100
AcDbEntity
8
0
100
AcDbPolyline
90
12
70
1
43
0.0
10
40.732080825048023
20
5.458000387623259
10
40.50026487647694
20
5.8595173885531517
42
-0.52656181933170354
10
34.073821405273947
20
9.5698262565841059
10
33.610189508131775
20
9.5698262565841041
10
33.610189508131775
20
10.269826256584105
10
34.073821405273939
20
10.269826256584103
42
-0.5265618193317031
10
40.500264876476933
20
13.980135124615066
10
40.732080825048016
20
14.381652125544955
10
41.338298607697126
20
14.031652125544957
10
41.106482659126044
20
13.630135124615069
42
-0.52656181933170343
10
41.106482659126044
20
6.2095173885531469
10
41.338298607697126
20
5.8080003876232587
0
CIRCLE
5
107
100
AcDbEntity
8
0
100
AcDbCircle
10
38.560189646958975
20
9.9198262565841056
30
0
40
7.5
210
-0
220
0
230
1
0
LWPOLYLINE
5
108
100
AcDbEntity
8
0
100
AcDbPolyline
90
5
70
1
43
0.0
10
16.489304516045454
20
3.2647705670019569
10
16.739304516045454
20
3.7670800481137658
10
16.739304516045447
20
29.365536839278313
10
16.239304516045451
20
29.365536839278313
10
16.239304516045451
20
3.7670800481137685
0
LWPOLYLINE
5
109
100
AcDbEntity
8
0
100
AcDbPolyline
90
5
70
1
43
0.0
10
21.04258508239371
20
3.5380010467934642
10
21.29258508239371
20
4.0403105279052731
10
21.292585082393707
20
29.638767319069839
10
20.792585082393707
20
29.638767319069839
10
20.79258508239371
20
4.0403105279052758
0
LWPOLYLINE
5
110
100
AcDbEntity
8
0
100
AcDbPolyline
90
5
70
1
43
0.0
10
25.297302053334271
20
2.9781862174908253
10
25.547302053334267
20
3.4804956986026343
10
25.54730205333426
20
29.0789524897672
10
25.047302053334267
20
29.078952489767197
10
25.047302053334271
20
3.4804956986026343
0
ENDSEC
0
SECTION
2
OBJECTS
0
DICTIONARY
5
C
100
AcDbDictionary
3
ACAD_GROUP
350
D
3
ACAD_MLINESTYLE
350
17
0
DICTIONARY
5
D
100
AcDbDictionary
0
DICTIONARY
5
1A
330
C
100
AcDbDictionary
0
DICTIONARY
5
17
100
AcDbDictionary
0
ENDSEC
0
EOF
